<?xml version="1.0" standalone="no"?>
<!DOCTYPE svg PUBLIC "-//W3C//DTD SVG 20010904//EN"
 "http://www.w3.org/TR/2001/REC-SVG-20010904/DTD/svg10.dtd">
<svg version="1.0" xmlns="http://www.w3.org/2000/svg"
 width="2368.000000pt" height="726.000000pt" viewBox="0 0 2368.000000 726.000000"
 preserveAspectRatio="xMidYMid meet">

<g transform="translate(0.000000,726.000000) scale(0.100000,-0.100000)"
fill="#FFFFFF" stroke="none">
<path d="M1875 7253 c-851 -75 -1560 -554 -1788 -1209 -78 -225 -72 -12 -72
-2409 0 -2030 1 -2144 18 -2225 43 -200 128 -393 245 -560 80 -113 265 -303
379 -388 353 -266 784 -419 1270 -452 112 -8 3041 -10 10023 -8 9362 3 9871 4
9980 21 544 84 969 284 1295 612 261 262 411 570 445 910 8 77 10 720 8 2165
l-4 2055 -22 97 c-81 352 -260 638 -555 884 -305 256 -650 405 -1134 491 -93
17 -638 18 -10073 19 -5486 0 -9993 -1 -10015 -3z m20070 -226 c345 -60 626
-167 876 -336 378 -254 602 -603 640 -996 7 -74 9 -769 6 -2140 -3 -1860 -5
-2036 -20 -2105 -144 -638 -741 -1107 -1549 -1217 -128 -17 -531 -18 -10058
-18 -8042 0 -9943 2 -10020 13 -276 37 -501 103 -715 207 -483 235 -794 610
-869 1045 -14 84 -16 302 -16 2146 0 1406 3 2077 11 2130 93 673 804 1221
1669 1287 25 2 4523 3 9995 3 9403 -1 9955 -2 10050 -19z"/>
<path d="M7542 4955 c-177 -355 -322 -647 -322 -650 0 -2 41 -6 90 -7 l90 -3
-182 -233 -183 -233 -130 -381 c-71 -210 -131 -385 -133 -390 -2 -4 42 -8 97
-8 56 0 101 -3 101 -6 0 -3 -74 -109 -165 -235 l-166 -229 -132 -387 -132
-388 92 -3 c51 -1 93 -7 93 -12 0 -5 -18 -59 -39 -119 l-39 -111 2619 0 c1440
0 2619 4 2619 8 0 4 -18 61 -39 125 -22 64 -36 118 -33 120 4 3 41 12 82 22
41 10 76 19 78 20 2 2 -54 176 -123 389 l-127 385 -154 210 c-85 115 -154 212
-154 215 0 3 33 6 73 7 132 2 133 -41 -12 400 l-127 385 -176 234 c-97 129
-176 235 -175 236 1 1 49 -7 107 -17 58 -11 110 -18 115 -17 13 4 -657 1313
-670 1312 -10 -1 -834 -1143 -835 -1156 0 -4 43 -9 95 -10 l95 -3 -128 -101
-128 -101 -167 -328 c-92 -181 -165 -330 -163 -333 3 -2 40 -9 83 -14 43 -6
80 -12 82 -14 3 -2 -215 -431 -225 -443 -6 -7 -115 230 -109 238 2 5 36 11 75
15 38 4 70 9 70 11 0 2 -56 117 -123 257 l-124 253 -207 275 c-115 151 -212
280 -216 285 -6 7 28 9 97 7 l106 -4 -19 29 c-124 191 -767 1143 -772 1143 -4
0 -152 -290 -330 -645z"/>
<path d="M1320 4840 l0 -650 380 0 380 0 0 -1285 0 -1285 710 0 710 0 0 1285
0 1285 383 2 382 3 3 648 2 647 -1475 0 -1475 0 0 -650z"/>
<path d="M4692 3558 l3 -1933 718 -3 717 -2 0 1935 0 1935 -720 0 -720 0 2
-1932z"/>
<path d="M12140 3555 l0 -1936 1068 4 c935 3 1080 5 1170 20 369 60 606 162
782 338 162 161 246 356 272 626 28 303 -49 580 -210 754 -102 110 -229 188
-406 248 l-79 27 49 18 c118 44 262 158 336 267 44 64 84 154 109 250 20 72
23 108 23 259 0 192 -10 255 -64 400 -40 112 -95 201 -176 289 -165 178 -378
287 -669 343 -107 21 -139 22 -1157 25 l-1048 4 0 -1936z m1575 975 c94 -14
165 -50 201 -102 24 -34 29 -53 33 -115 4 -94 -16 -150 -70 -196 -61 -53 -120
-67 -275 -67 l-134 0 0 245 0 245 88 0 c48 0 119 -5 157 -10z m150 -1373 c97
-27 162 -74 197 -141 17 -32 22 -59 23 -121 0 -70 -4 -86 -28 -127 -67 -115
-186 -157 -449 -158 l-138 0 0 286 0 287 173 -6 c101 -3 193 -11 222 -20z"/>
<path d="M15800 3555 l0 -1935 1315 0 1315 0 0 540 0 540 -620 0 -620 0 0 180
0 180 550 0 550 0 0 510 0 510 -550 0 -550 0 0 165 0 165 605 0 605 0 0 540 0
540 -1300 0 -1300 0 0 -1935z"/>
<path d="M18942 3558 l3 -1933 695 0 695 0 5 586 5 586 309 -584 c170 -322
314 -587 320 -589 6 -2 365 -3 799 -2 l787 3 -509 775 c-280 426 -507 777
-505 779 2 3 37 13 76 23 390 99 638 479 638 978 0 656 -337 1088 -970 1244
-249 61 -223 59 -1333 63 l-1017 4 2 -1933z m1778 866 c71 -34 121 -79 150
-134 27 -53 44 -153 37 -223 -13 -136 -64 -215 -175 -269 -66 -33 -68 -33
-234 -37 l-168 -3 0 352 0 352 163 -4 c156 -3 164 -5 227 -34z"/>
</g>
</svg>
