<?xml version="1.0" standalone="no"?>
<!DOCTYPE svg PUBLIC "-//W3C//DTD SVG 20010904//EN"
 "http://www.w3.org/TR/2001/REC-SVG-20010904/DTD/svg10.dtd">
<svg version="1.0" xmlns="http://www.w3.org/2000/svg"
 width="742.000000pt" height="196.000000pt" viewBox="0 0 742.000000 196.000000"
 preserveAspectRatio="xMidYMid meet">

<g transform="translate(0.000000,196.000000) scale(0.100000,-0.100000)"
fill="#000000" stroke="none">
<path d="M962 1948 c-10 -13 -132 -522 -132 -552 0 -26 17 -18 49 21 17 20 33
34 36 31 8 -7 175 -489 175 -503 0 -6 -8 -27 -18 -47 l-18 -35 168 -33 c93
-18 171 -30 174 -27 5 5 -377 1125 -391 1148 -9 13 -31 11 -43 -3z"/>
<path d="M755 1861 c-224 -60 -414 -189 -541 -367 -171 -240 -220 -563 -127
-847 21 -62 30 -77 45 -77 16 0 19 5 14 22 -44 164 -47 392 -7 543 42 155 157
352 268 456 107 103 254 188 406 238 45 14 82 31 82 36 0 17 -67 15 -140 -4z"/>
<path d="M1082 1864 c2 -10 34 -26 88 -43 347 -112 595 -395 671 -766 18 -87
15 -285 -6 -375 -9 -41 -19 -86 -22 -98 -5 -19 -2 -23 13 -20 22 4 57 94 81
208 22 105 13 327 -17 430 -93 326 -358 582 -681 660 -104 25 -132 26 -127 4z"/>
<path d="M2613 1471 c-139 -48 -223 -165 -223 -311 0 -121 73 -236 185 -290
49 -25 55 -25 340 -28 160 -1 300 -4 311 -7 27 -6 37 -30 24 -56 -10 -18 -26
-19 -415 -19 l-405 0 0 -145 0 -145 409 0 c386 0 413 1 476 21 90 28 172 105
205 194 27 74 24 175 -8 247 -30 69 -106 141 -175 167 -54 20 -76 21 -346 21
-278 0 -289 1 -307 21 -14 15 -16 24 -7 37 9 15 47 17 417 20 l406 2 0 145 0
145 -417 0 c-376 -1 -423 -2 -470 -19z"/>
<path d="M4015 1481 c-14 -23 -465 -995 -465 -1003 0 -5 79 -7 176 -6 l175 3
36 83 36 82 225 -2 226 -3 35 -82 35 -83 179 0 c98 0 176 3 174 8 -2 4 -109
233 -237 510 l-234 502 -178 0 c-98 0 -179 -4 -183 -9z m244 -449 c28 -68 51
-125 51 -128 0 -2 -49 -4 -110 -4 -72 0 -110 4 -110 11 0 22 104 259 110 252
4 -5 30 -63 59 -131z"/>
<path d="M4930 980 l0 -510 150 0 150 0 2 302 3 301 220 -301 220 -301 173 -1
172 0 0 510 0 510 -145 0 -145 0 -2 -302 -3 -302 -220 299 -220 300 -178 3
-177 2 0 -510z"/>
<path d="M6117 1478 c5 -7 114 -155 241 -329 l232 -316 0 -182 0 -181 175 0
175 0 0 184 0 184 240 326 239 326 -177 0 -177 0 -150 -204 c-82 -113 -152
-202 -155 -200 -3 3 -70 94 -150 202 l-146 197 -178 3 c-144 2 -177 0 -169
-10z"/>
<path d="M496 925 c-218 -251 -396 -462 -396 -470 0 -39 25 -35 299 49 150 46
275 87 279 91 10 9 -16 22 -60 29 -22 4 -38 11 -36 16 6 19 339 398 354 404 9
3 30 6 48 6 l33 0 -54 158 c-30 86 -58 161 -62 165 -5 5 -187 -197 -405 -448z"/>
<path d="M757 791 c-65 -74 -114 -137 -110 -138 41 -14 1190 -230 1200 -226
34 13 1 55 -152 198 -88 81 -181 169 -207 194 -26 24 -51 42 -55 38 -4 -4 -1
-28 5 -54 7 -25 11 -48 8 -50 -6 -7 -479 86 -512 101 -17 8 -37 27 -45 44
l-14 30 -118 -137z"/>
<path d="M224 405 c-12 -31 128 -175 245 -250 94 -61 166 -92 278 -121 316
-80 644 4 875 224 96 92 125 129 110 144 -8 8 -29 -6 -74 -47 -179 -162 -389
-251 -624 -262 -283 -14 -529 77 -743 276 -30 28 -56 51 -58 51 -2 0 -6 -7 -9
-15z"/>
</g>
</svg>
